<svg xmlns="http://www.w3.org/2000/svg" width="74" height="74" viewBox="0 0 74 74" fill="none"><path d="M37.0093 0H36.9907C16.5899 0 0 16.5945 0 37C0 45.0938 2.6085 52.5955 7.04388 58.6866L2.43275 72.4321L16.6546 67.8857C22.5053 71.7615 29.4844 74 37.0093 74C57.4101 74 74 57.4009 74 37C74 16.5991 57.4101 0 37.0093 0Z" fill="#46C900"></path><path d="M58.5386 52.2486C57.6459 54.7692 54.1032 56.8597 51.2773 57.4702C49.3441 57.8819 46.8188 58.2102 38.3181 54.686C27.4447 50.1812 20.4424 39.1321 19.8967 38.4152C19.3741 37.6984 15.5029 32.5646 15.5029 27.2551C15.5029 21.9456 18.1993 19.3602 19.2862 18.2502C20.1788 17.3391 21.6542 16.9229 23.0694 16.9229C23.5273 16.9229 23.9389 16.946 24.3089 16.9645C25.3958 17.0107 25.9416 17.0755 26.6584 18.7914C27.5511 20.942 29.7248 26.2515 29.9838 26.7972C30.2474 27.343 30.5111 28.083 30.1411 28.7999C29.7942 29.5399 29.4889 29.8682 28.9432 30.4972C28.3974 31.1262 27.8794 31.6072 27.3337 32.2825C26.8342 32.8699 26.2699 33.4989 26.8989 34.5857C27.5279 35.6495 29.7017 39.1968 32.9022 42.0459C37.0323 45.7227 40.3808 46.8975 41.5787 47.397C42.4713 47.767 43.5351 47.6791 44.1872 46.9854C45.0151 46.0927 46.0372 44.6127 47.0778 43.1559C47.8178 42.1106 48.7521 41.9811 49.7326 42.3511C50.7316 42.698 56.0179 45.3111 57.1048 45.8522C58.1917 46.398 58.9086 46.657 59.1722 47.1149C59.4312 47.5727 59.4312 49.7234 58.5386 52.2486Z" fill="#FAFAFA"></path></svg>